<svg id="Layer_1" data-name="Layer 1" xmlns="http://www.w3.org/2000/svg" xmlns:xlink="http://www.w3.org/1999/xlink" viewBox="0 0 1200 1200"><defs><style>.cls-1,.cls-4{fill:none;}.cls-2{fill:#2b7aed;}.cls-3{clip-path:url(#clip-path);}.cls-4{stroke:#fff;stroke-linecap:round;stroke-miterlimit:10;stroke-width:16px;}</style><clipPath id="clip-path"><rect class="cls-1" width="1200" height="1200"/></clipPath></defs><title>super-duper-smtp-logo</title><rect class="cls-2" width="1200" height="1200"/><g class="cls-3"><path class="cls-4" d="M1053.73,718.61,581.2,760a7.36,7.36,0,0,1-7.94-6.67L547.05,453.69a7.37,7.37,0,0,1,6.66-7.95L573.47,444l452.77-39.62a7.37,7.37,0,0,1,8,6.67l26.21,299.59A7.36,7.36,0,0,1,1053.73,718.61Z"/><polygon class="cls-4" points="1037 718 838.67 584.33 804.69 620.56 767.76 592.82 599 756 1037 718"/><polyline class="cls-4" points="838.67 584.33 1005 407 571 445 767.76 592.82"/><polyline class="cls-4" points="767.76 592.82 804.69 620.56 838.67 584.33"/><line class="cls-4" x1="231.19" y1="549.45" x2="493.19" y2="526.53"/><line class="cls-4" x1="245.57" y1="713.82" x2="507.57" y2="690.9"/><line class="cls-4" x1="152.93" y1="641.62" x2="500.6" y2="611.21"/><path class="cls-4" d="M351,493.25c39.18-110.59,140-193.89,264.46-204.78a308.18,308.18,0,0,1,235.34,79.69"/><path class="cls-4" d="M887.06,785A308.2,308.2,0,0,1,669.27,904.12c-123.54,10.81-236.45-52.64-294.65-153.37"/></g></svg>